<svg width="49" height="49" viewBox="0 0 49 49" fill="none" xmlns="http://www.w3.org/2000/svg">
    <path d="M47 47L36.1426 36.1426M36.1426 36.1426C37.9998 34.2854 39.473 32.0806 40.4781 29.6541C41.4832 27.2275 42.0006 24.6268 42.0006 22.0003C42.0006 19.3738 41.4833 16.7731 40.4781 14.3465C39.473 11.92 37.9998 9.71515 36.1426 7.85795C34.2854 6.00075 32.0806 4.52754 29.6541 3.52243C27.2275 2.51732 24.6268 2 22.0003 2C19.3738 2 16.7731 2.51732 14.3465 3.52243C11.92 4.52754 9.71515 6.00075 7.85795 7.85795C4.10717 11.6087 2 16.6959 2 22.0003C2 27.3047 4.10717 32.3918 7.85795 36.1426C11.6087 39.8934 16.6959 42.0006 22.0003 42.0006C27.3047 42.0006 32.3918 39.8934 36.1426 36.1426Z" stroke="#ee4758" stroke-width="2.5" stroke-linecap="round" stroke-linejoin="round"/>
</svg>